<mxfile host="app.diagrams.net" agent="Mozilla/5.0 (X11; Linux x86_64) AppleWebKit/537.36 (KHTML, like Gecko) Chrome/138.0.0.0 Safari/537.36" version="28.0.9">
  <diagram name="Page-1" id="wwfE4hXIR6dMBlTckLYs">
    <mxGraphModel dx="3443" dy="2489" grid="1" gridSize="10" guides="1" tooltips="1" connect="1" arrows="1" fold="1" page="1" pageScale="1" pageWidth="850" pageHeight="1100" math="0" shadow="0">
      <root>
        <mxCell id="0" />
        <mxCell id="1" parent="0" />
        <mxCell id="bluMt7Mp7qkQkoVN34da-1" value="&lt;font style=&quot;color: rgb(51, 51, 51);&quot;&gt;&lt;b&gt;AWS Cloud&lt;/b&gt;&lt;/font&gt;" style="points=[[0,0],[0.25,0],[0.5,0],[0.75,0],[1,0],[1,0.25],[1,0.5],[1,0.75],[1,1],[0.75,1],[0.5,1],[0.25,1],[0,1],[0,0.75],[0,0.5],[0,0.25]];outlineConnect=0;gradientColor=none;html=1;whiteSpace=wrap;fontSize=12;fontStyle=0;container=1;pointerEvents=0;collapsible=0;recursiveResize=0;shape=mxgraph.aws4.group;grIcon=mxgraph.aws4.group_aws_cloud_alt;strokeColor=#333333;fillColor=none;verticalAlign=top;align=left;spacingLeft=30;fontColor=#232F3E;dashed=0;strokeWidth=3;" parent="1" vertex="1">
          <mxGeometry x="-240" y="63" width="1430" height="1077" as="geometry" />
        </mxCell>
        <mxCell id="-M65HGXtSgj3IquWQeUL-9" value="" style="rounded=0;whiteSpace=wrap;html=1;fillColor=none;strokeWidth=3;" vertex="1" parent="bluMt7Mp7qkQkoVN34da-1">
          <mxGeometry x="-150" y="-173" width="1750" height="1343" as="geometry" />
        </mxCell>
        <mxCell id="bluMt7Mp7qkQkoVN34da-2" value="&lt;font style=&quot;color: rgb(51, 51, 51);&quot;&gt;Region&lt;/font&gt;" style="sketch=0;outlineConnect=0;gradientColor=none;html=1;whiteSpace=wrap;fontSize=12;fontStyle=1;shape=mxgraph.aws4.group;grIcon=mxgraph.aws4.group_region;strokeColor=#333333;fillColor=none;verticalAlign=top;align=left;spacingLeft=30;fontColor=#879196;dashed=1;strokeWidth=3;" parent="bluMt7Mp7qkQkoVN34da-1" vertex="1">
          <mxGeometry x="50" y="50" width="1230" height="930" as="geometry" />
        </mxCell>
        <mxCell id="bluMt7Mp7qkQkoVN34da-4" value="&lt;font style=&quot;color: rgb(122, 161, 22);&quot;&gt;VPC&lt;/font&gt;&lt;div&gt;&lt;font style=&quot;color: rgb(122, 161, 22);&quot;&gt;10.0.0.0/16&lt;/font&gt;&lt;/div&gt;" style="sketch=0;outlineConnect=0;gradientColor=none;html=1;whiteSpace=wrap;fontSize=12;fontStyle=1;shape=mxgraph.aws4.group;grIcon=mxgraph.aws4.group_vpc;strokeColor=#7AA116;fillColor=none;verticalAlign=top;align=left;spacingLeft=30;fontColor=#879196;dashed=0;strokeWidth=3;" parent="bluMt7Mp7qkQkoVN34da-1" vertex="1">
          <mxGeometry x="170" y="170" width="1060" height="720" as="geometry" />
        </mxCell>
        <mxCell id="bluMt7Mp7qkQkoVN34da-5" value="&lt;font color=&quot;#8c4fff&quot;&gt;US-EAST-1A&lt;/font&gt;" style="sketch=0;outlineConnect=0;gradientColor=none;html=1;whiteSpace=wrap;fontSize=12;fontStyle=1;shape=mxgraph.aws4.group;grIcon=mxgraph.aws4.group_availability_zone;strokeColor=#8C4FFF;fillColor=none;verticalAlign=top;align=left;spacingLeft=30;fontColor=#545B64;dashed=1;strokeWidth=2;" parent="bluMt7Mp7qkQkoVN34da-1" vertex="1">
          <mxGeometry x="300" y="120" width="380" height="830" as="geometry" />
        </mxCell>
        <mxCell id="bluMt7Mp7qkQkoVN34da-7" value="&lt;span style=&quot;color: rgb(140, 79, 255);&quot;&gt;US-EAST-1B&lt;/span&gt;" style="sketch=0;outlineConnect=0;gradientColor=none;html=1;whiteSpace=wrap;fontSize=12;fontStyle=1;shape=mxgraph.aws4.group;grIcon=mxgraph.aws4.group_availability_zone;strokeColor=#8C4FFF;fillColor=none;verticalAlign=top;align=left;spacingLeft=30;fontColor=#545B64;dashed=1;strokeWidth=2;" parent="bluMt7Mp7qkQkoVN34da-1" vertex="1">
          <mxGeometry x="800" y="120" width="380" height="830" as="geometry" />
        </mxCell>
        <mxCell id="bluMt7Mp7qkQkoVN34da-9" value="&lt;b&gt;&lt;font style=&quot;font-size: 15px;&quot;&gt;Internet Gateway&lt;/font&gt;&lt;/b&gt;" style="sketch=0;outlineConnect=0;fontColor=#232F3E;gradientColor=none;fillColor=#8C4FFF;strokeColor=none;dashed=0;verticalLabelPosition=bottom;verticalAlign=top;align=center;html=1;fontSize=12;fontStyle=0;aspect=fixed;pointerEvents=1;shape=mxgraph.aws4.internet_gateway;" parent="bluMt7Mp7qkQkoVN34da-1" vertex="1">
          <mxGeometry x="718" y="150" width="40" height="40" as="geometry" />
        </mxCell>
        <mxCell id="bluMt7Mp7qkQkoVN34da-10" value="&lt;b&gt;Public subnet&lt;/b&gt;&lt;div&gt;&lt;b&gt;10.0.1.0/24&lt;/b&gt;&lt;/div&gt;" style="points=[[0,0],[0.25,0],[0.5,0],[0.75,0],[1,0],[1,0.25],[1,0.5],[1,0.75],[1,1],[0.75,1],[0.5,1],[0.25,1],[0,1],[0,0.75],[0,0.5],[0,0.25]];outlineConnect=0;gradientColor=none;html=1;whiteSpace=wrap;fontSize=12;fontStyle=0;container=1;pointerEvents=0;collapsible=0;recursiveResize=0;shape=mxgraph.aws4.group;grIcon=mxgraph.aws4.group_security_group;grStroke=0;strokeColor=#7AA116;fillColor=#F2F6E8;verticalAlign=top;align=left;spacingLeft=30;fontColor=#248814;dashed=0;" parent="bluMt7Mp7qkQkoVN34da-1" vertex="1">
          <mxGeometry x="330" y="230" width="310" height="170" as="geometry" />
        </mxCell>
        <mxCell id="bluMt7Mp7qkQkoVN34da-11" value="&lt;b&gt;Public subnet&lt;/b&gt;&lt;div&gt;&lt;b&gt;10.0.2.0/24&lt;/b&gt;&lt;/div&gt;" style="points=[[0,0],[0.25,0],[0.5,0],[0.75,0],[1,0],[1,0.25],[1,0.5],[1,0.75],[1,1],[0.75,1],[0.5,1],[0.25,1],[0,1],[0,0.75],[0,0.5],[0,0.25]];outlineConnect=0;gradientColor=none;html=1;whiteSpace=wrap;fontSize=12;fontStyle=0;container=1;pointerEvents=0;collapsible=0;recursiveResize=0;shape=mxgraph.aws4.group;grIcon=mxgraph.aws4.group_security_group;grStroke=0;strokeColor=#7AA116;fillColor=#F2F6E8;verticalAlign=top;align=left;spacingLeft=30;fontColor=#248814;dashed=0;" parent="bluMt7Mp7qkQkoVN34da-10" vertex="1">
          <mxGeometry x="510" width="310" height="170" as="geometry" />
        </mxCell>
        <mxCell id="bluMt7Mp7qkQkoVN34da-16" value="&lt;b&gt;&lt;font style=&quot;font-size: 16px;&quot;&gt;NAT Gateway&lt;/font&gt;&lt;/b&gt;" style="sketch=0;outlineConnect=0;fontColor=#232F3E;gradientColor=none;fillColor=#8C4FFF;strokeColor=none;dashed=0;verticalLabelPosition=bottom;verticalAlign=top;align=center;html=1;fontSize=12;fontStyle=0;aspect=fixed;pointerEvents=1;shape=mxgraph.aws4.nat_gateway;" parent="bluMt7Mp7qkQkoVN34da-10" vertex="1">
          <mxGeometry x="128" y="58" width="54" height="54" as="geometry" />
        </mxCell>
        <mxCell id="bluMt7Mp7qkQkoVN34da-12" value="&lt;b&gt;Private subnet&lt;/b&gt;&lt;div&gt;&lt;b&gt;10.0.3.0/24&lt;/b&gt;&lt;/div&gt;" style="points=[[0,0],[0.25,0],[0.5,0],[0.75,0],[1,0],[1,0.25],[1,0.5],[1,0.75],[1,1],[0.75,1],[0.5,1],[0.25,1],[0,1],[0,0.75],[0,0.5],[0,0.25]];outlineConnect=0;gradientColor=none;html=1;whiteSpace=wrap;fontSize=12;fontStyle=0;container=1;pointerEvents=0;collapsible=0;recursiveResize=0;shape=mxgraph.aws4.group;grIcon=mxgraph.aws4.group_security_group;grStroke=0;strokeColor=#00A4A6;fillColor=#E6F6F7;verticalAlign=top;align=left;spacingLeft=30;fontColor=#147EBA;dashed=0;" parent="bluMt7Mp7qkQkoVN34da-1" vertex="1">
          <mxGeometry x="330" y="450" width="310" height="170" as="geometry" />
        </mxCell>
        <mxCell id="bluMt7Mp7qkQkoVN34da-13" value="&lt;b&gt;Private subnet&lt;/b&gt;&lt;div&gt;&lt;b&gt;10.0.4.0/24&lt;/b&gt;&lt;/div&gt;" style="points=[[0,0],[0.25,0],[0.5,0],[0.75,0],[1,0],[1,0.25],[1,0.5],[1,0.75],[1,1],[0.75,1],[0.5,1],[0.25,1],[0,1],[0,0.75],[0,0.5],[0,0.25]];outlineConnect=0;gradientColor=none;html=1;whiteSpace=wrap;fontSize=12;fontStyle=0;container=1;pointerEvents=0;collapsible=0;recursiveResize=0;shape=mxgraph.aws4.group;grIcon=mxgraph.aws4.group_security_group;grStroke=0;strokeColor=#00A4A6;fillColor=#E6F6F7;verticalAlign=top;align=left;spacingLeft=30;fontColor=#147EBA;dashed=0;" parent="bluMt7Mp7qkQkoVN34da-1" vertex="1">
          <mxGeometry x="840" y="450" width="310" height="170" as="geometry" />
        </mxCell>
        <mxCell id="bluMt7Mp7qkQkoVN34da-14" value="&lt;b&gt;Private subnet&lt;/b&gt;&lt;div&gt;&lt;b&gt;10.0.5.0/24&lt;/b&gt;&lt;/div&gt;" style="points=[[0,0],[0.25,0],[0.5,0],[0.75,0],[1,0],[1,0.25],[1,0.5],[1,0.75],[1,1],[0.75,1],[0.5,1],[0.25,1],[0,1],[0,0.75],[0,0.5],[0,0.25]];outlineConnect=0;gradientColor=none;html=1;whiteSpace=wrap;fontSize=12;fontStyle=0;container=1;pointerEvents=0;collapsible=0;recursiveResize=0;shape=mxgraph.aws4.group;grIcon=mxgraph.aws4.group_security_group;grStroke=0;strokeColor=#00A4A6;fillColor=#E6F6F7;verticalAlign=top;align=left;spacingLeft=30;fontColor=#147EBA;dashed=0;" parent="bluMt7Mp7qkQkoVN34da-1" vertex="1">
          <mxGeometry x="330" y="670" width="310" height="170" as="geometry" />
        </mxCell>
        <mxCell id="bluMt7Mp7qkQkoVN34da-15" value="&lt;b&gt;Private subnet&lt;/b&gt;&lt;div&gt;&lt;b&gt;10.0.6.0/24&lt;/b&gt;&lt;/div&gt;" style="points=[[0,0],[0.25,0],[0.5,0],[0.75,0],[1,0],[1,0.25],[1,0.5],[1,0.75],[1,1],[0.75,1],[0.5,1],[0.25,1],[0,1],[0,0.75],[0,0.5],[0,0.25]];outlineConnect=0;gradientColor=none;html=1;whiteSpace=wrap;fontSize=12;fontStyle=0;container=1;pointerEvents=0;collapsible=0;recursiveResize=0;shape=mxgraph.aws4.group;grIcon=mxgraph.aws4.group_security_group;grStroke=0;strokeColor=#00A4A6;fillColor=#E6F6F7;verticalAlign=top;align=left;spacingLeft=30;fontColor=#147EBA;dashed=0;" parent="bluMt7Mp7qkQkoVN34da-1" vertex="1">
          <mxGeometry x="840" y="670" width="310" height="170" as="geometry" />
        </mxCell>
        <mxCell id="TNlYU9b12tAEpSDugZnS-1" value="&lt;font style=&quot;font-size: 16px;&quot;&gt;&lt;b&gt;Auto Scaling group&lt;/b&gt;&lt;/font&gt;" style="points=[[0,0],[0.25,0],[0.5,0],[0.75,0],[1,0],[1,0.25],[1,0.5],[1,0.75],[1,1],[0.75,1],[0.5,1],[0.25,1],[0,1],[0,0.75],[0,0.5],[0,0.25]];outlineConnect=0;gradientColor=none;html=1;whiteSpace=wrap;fontSize=12;fontStyle=0;container=1;pointerEvents=0;collapsible=0;recursiveResize=0;shape=mxgraph.aws4.groupCenter;grIcon=mxgraph.aws4.group_auto_scaling_group;grStroke=1;strokeColor=#D86613;fillColor=none;verticalAlign=top;align=center;fontColor=#D86613;dashed=1;spacingTop=25;" parent="bluMt7Mp7qkQkoVN34da-1" vertex="1">
          <mxGeometry x="398" y="490" width="680" height="85" as="geometry" />
        </mxCell>
        <mxCell id="TNlYU9b12tAEpSDugZnS-14" value="" style="sketch=0;points=[[0,0,0],[0.25,0,0],[0.5,0,0],[0.75,0,0],[1,0,0],[0,1,0],[0.25,1,0],[0.5,1,0],[0.75,1,0],[1,1,0],[0,0.25,0],[0,0.5,0],[0,0.75,0],[1,0.25,0],[1,0.5,0],[1,0.75,0]];outlineConnect=0;fontColor=#232F3E;fillColor=#ED7100;strokeColor=#ffffff;dashed=0;verticalLabelPosition=bottom;verticalAlign=top;align=center;html=1;fontSize=12;fontStyle=0;aspect=fixed;shape=mxgraph.aws4.resourceIcon;resIcon=mxgraph.aws4.ec2;" parent="TNlYU9b12tAEpSDugZnS-1" vertex="1">
          <mxGeometry x="60" y="20" width="50" height="50" as="geometry" />
        </mxCell>
        <mxCell id="TNlYU9b12tAEpSDugZnS-11" style="edgeStyle=orthogonalEdgeStyle;rounded=0;orthogonalLoop=1;jettySize=auto;html=1;" parent="bluMt7Mp7qkQkoVN34da-1" edge="1">
          <mxGeometry relative="1" as="geometry">
            <mxPoint x="485" y="368" as="sourcePoint" />
            <mxPoint x="485" y="463" as="targetPoint" />
          </mxGeometry>
        </mxCell>
        <mxCell id="TNlYU9b12tAEpSDugZnS-12" value="" style="rounded=0;whiteSpace=wrap;html=1;fillColor=none;dashed=1;" parent="bluMt7Mp7qkQkoVN34da-1" vertex="1">
          <mxGeometry x="398" y="720" width="680" height="85" as="geometry" />
        </mxCell>
        <mxCell id="TNlYU9b12tAEpSDugZnS-13" value="" style="outlineConnect=0;dashed=0;verticalLabelPosition=bottom;verticalAlign=top;align=center;html=1;shape=mxgraph.aws3.rds;fillColor=#2E73B8;gradientColor=none;" parent="bluMt7Mp7qkQkoVN34da-1" vertex="1">
          <mxGeometry x="465" y="741" width="40" height="43" as="geometry" />
        </mxCell>
        <mxCell id="TNlYU9b12tAEpSDugZnS-15" style="edgeStyle=orthogonalEdgeStyle;rounded=0;orthogonalLoop=1;jettySize=auto;html=1;entryX=0.129;entryY=-0.022;entryDx=0;entryDy=0;entryPerimeter=0;exitX=0.5;exitY=1;exitDx=0;exitDy=0;" parent="bluMt7Mp7qkQkoVN34da-1" edge="1">
          <mxGeometry relative="1" as="geometry">
            <mxPoint x="485" y="601" as="sourcePoint" />
            <mxPoint x="485.7199999999998" y="699.1300000000001" as="targetPoint" />
          </mxGeometry>
        </mxCell>
        <mxCell id="TNlYU9b12tAEpSDugZnS-17" value="&lt;b&gt;&lt;font style=&quot;color: rgb(46, 115, 184);&quot;&gt;Database Subnet Group&lt;/font&gt;&lt;/b&gt;" style="text;strokeColor=none;align=center;fillColor=none;html=1;verticalAlign=middle;whiteSpace=wrap;rounded=0;fontSize=16;" parent="bluMt7Mp7qkQkoVN34da-1" vertex="1">
          <mxGeometry x="644.5" y="720" width="191" height="30" as="geometry" />
        </mxCell>
        <mxCell id="-M65HGXtSgj3IquWQeUL-2" value="" style="sketch=0;points=[[0,0,0],[0.25,0,0],[0.5,0,0],[0.75,0,0],[1,0,0],[0,1,0],[0.25,1,0],[0.5,1,0],[0.75,1,0],[1,1,0],[0,0.25,0],[0,0.5,0],[0,0.75,0],[1,0.25,0],[1,0.5,0],[1,0.75,0]];outlineConnect=0;fontColor=#232F3E;fillColor=#ED7100;strokeColor=#ffffff;dashed=0;verticalLabelPosition=bottom;verticalAlign=top;align=center;html=1;fontSize=12;fontStyle=0;aspect=fixed;shape=mxgraph.aws4.resourceIcon;resIcon=mxgraph.aws4.ec2;" vertex="1" parent="bluMt7Mp7qkQkoVN34da-1">
          <mxGeometry x="965" y="507.5" width="50" height="50" as="geometry" />
        </mxCell>
        <mxCell id="TNlYU9b12tAEpSDugZnS-8" style="edgeStyle=orthogonalEdgeStyle;rounded=0;orthogonalLoop=1;jettySize=auto;html=1;" parent="1" source="TNlYU9b12tAEpSDugZnS-7" target="bluMt7Mp7qkQkoVN34da-9" edge="1">
          <mxGeometry relative="1" as="geometry" />
        </mxCell>
        <mxCell id="TNlYU9b12tAEpSDugZnS-7" value="" style="sketch=0;pointerEvents=1;shadow=0;dashed=0;html=1;strokeColor=none;labelPosition=center;verticalLabelPosition=bottom;verticalAlign=top;align=center;fillColor=#505050;shape=mxgraph.mscae.intune.user_group" parent="1" vertex="1">
          <mxGeometry x="467.5" y="-37" width="61" height="50" as="geometry" />
        </mxCell>
        <mxCell id="-M65HGXtSgj3IquWQeUL-3" value="" style="outlineConnect=0;dashed=0;verticalLabelPosition=bottom;verticalAlign=top;align=center;html=1;shape=mxgraph.aws3.rds;fillColor=#2E73B8;gradientColor=none;" vertex="1" parent="1">
          <mxGeometry x="733" y="801" width="40" height="43" as="geometry" />
        </mxCell>
        <mxCell id="-M65HGXtSgj3IquWQeUL-7" style="edgeStyle=orthogonalEdgeStyle;rounded=0;orthogonalLoop=1;jettySize=auto;html=1;" edge="1" parent="1" target="TNlYU9b12tAEpSDugZnS-1">
          <mxGeometry relative="1" as="geometry">
            <mxPoint x="498" y="430" as="sourcePoint" />
            <mxPoint x="500" y="550" as="targetPoint" />
            <Array as="points">
              <mxPoint x="498" y="510" />
              <mxPoint x="498" y="510" />
            </Array>
          </mxGeometry>
        </mxCell>
        <mxCell id="TNlYU9b12tAEpSDugZnS-6" value="&lt;b&gt;&lt;font style=&quot;font-size: 16px; color: rgb(237, 113, 0);&quot;&gt;Load Balancer&lt;/font&gt;&lt;/b&gt;" style="sketch=0;points=[[0,0,0],[0.25,0,0],[0.5,0,0],[0.75,0,0],[1,0,0],[0,1,0],[0.25,1,0],[0.5,1,0],[0.75,1,0],[1,1,0],[0,0.25,0],[0,0.5,0],[0,0.75,0],[1,0.25,0],[1,0.5,0],[1,0.75,0]];outlineConnect=0;fontColor=#232F3E;fillColor=#ED7100;strokeColor=#ffffff;dashed=0;verticalLabelPosition=bottom;verticalAlign=top;align=center;html=1;fontSize=12;fontStyle=0;aspect=fixed;shape=mxgraph.aws4.resourceIcon;resIcon=mxgraph.aws4.elastic_load_balancing;" parent="1" vertex="1">
          <mxGeometry x="478" y="358" width="40" height="40" as="geometry" />
        </mxCell>
        <mxCell id="TNlYU9b12tAEpSDugZnS-10" style="edgeStyle=orthogonalEdgeStyle;rounded=0;orthogonalLoop=1;jettySize=auto;html=1;entryX=0.5;entryY=0;entryDx=0;entryDy=0;entryPerimeter=0;" parent="1" target="TNlYU9b12tAEpSDugZnS-6" edge="1">
          <mxGeometry relative="1" as="geometry">
            <mxPoint x="498" y="280" as="sourcePoint" />
          </mxGeometry>
        </mxCell>
        <mxCell id="-M65HGXtSgj3IquWQeUL-10" value="" style="group" vertex="1" connectable="0" parent="1">
          <mxGeometry x="1170" y="1170" width="160" height="30" as="geometry" />
        </mxCell>
        <mxCell id="TNlYU9b12tAEpSDugZnS-22" value="AnshTechnoLabs" style="text;strokeColor=none;align=center;fillColor=none;html=1;verticalAlign=middle;whiteSpace=wrap;rounded=0;fontSize=14;fontStyle=1" parent="-M65HGXtSgj3IquWQeUL-10" vertex="1">
          <mxGeometry x="20" width="140" height="30" as="geometry" />
        </mxCell>
        <mxCell id="TNlYU9b12tAEpSDugZnS-23" value="" style="strokeColor=#333333;verticalLabelPosition=bottom;shadow=0;dashed=0;verticalAlign=top;strokeWidth=2;html=1;shape=mxgraph.mockup.misc.copyrightIcon;fillColor=none;" parent="-M65HGXtSgj3IquWQeUL-10" vertex="1">
          <mxGeometry y="5" width="20" height="20" as="geometry" />
        </mxCell>
      </root>
    </mxGraphModel>
  </diagram>
</mxfile>
